<svg width="939" height="843" viewBox="0 0 939 843" fill="none" xmlns="http://www.w3.org/2000/svg">
<path d="M751.5 842.5L0.5 389V0.5L939 593.5V842.5H751.5Z" fill="url(#paint0_linear)" fill-opacity="0.2"/>
<path d="M906.5 748L83 215.5" stroke="white" stroke-width="20" stroke-linecap="round" stroke-linejoin="round" stroke-dasharray="40 100"/>
<path d="M264.008 414.421L302.997 392.004L302.998 392.007C310.106 388.241 319.237 388.777 329.199 394.528C351.865 407.614 370.239 442.721 370.239 472.942C370.239 489.557 364.678 501.219 355.91 506.193L355.916 506.207L318.482 527.757L264.008 414.421Z" fill="url(#paint1_linear)"/>
<path d="M418.267 503.767L457.256 481.349L457.257 481.353C464.365 477.587 473.496 478.123 483.458 483.874C506.123 496.96 524.498 532.067 524.498 562.288C524.498 578.903 518.937 590.565 510.169 595.539L510.175 595.552L472.741 617.102L418.267 503.767Z" fill="url(#paint2_linear)"/>
<path d="M230.233 340.348V153.331L530.398 166.203V353.219C530.399 357.504 528.279 361.789 524.037 364.238L405.128 432.889C396.672 437.772 386.252 437.772 377.796 432.889L236.593 351.366C232.353 348.919 230.233 344.633 230.233 340.348V340.348Z" fill="url(#paint3_linear)"/>
<path d="M524.037 155.186L382.834 73.662C374.378 68.7797 363.958 68.7797 355.502 73.662L236.594 142.313C228.111 147.211 228.111 159.452 236.594 164.35L377.796 245.873C386.253 250.756 396.673 250.756 405.129 245.873L524.037 177.222C532.519 172.325 532.519 160.082 524.037 155.186V155.186Z" fill="url(#paint4_linear)"/>
<path d="M478.254 128.752L326.596 216.312L286.366 193.085L438.024 105.525L478.254 128.752Z" fill="#DEA861"/>
<path d="M454.209 114.857L302.551 202.418L310.431 206.967L462.09 119.408L454.209 114.857Z" fill="#CC8241"/>
<path d="M649.336 431.03L620.584 310.491C617.139 296.049 607.903 283.66 595.045 276.237L533.248 240.514C529.545 238.376 525.32 239 522.378 241.319L414.355 303.686L392.694 316.192L518.061 591.289L645.208 517.882C646.096 517.517 646.932 517.035 647.691 516.447C650.102 514.583 651.733 511.673 651.733 508.193V451.409C651.733 444.546 650.928 437.706 649.336 431.03Z" fill="url(#paint5_linear)"/>
<path d="M536.999 508.998L555.11 498.542C556.189 497.919 557.537 498.698 557.537 499.944V515.842C557.537 517.996 556.388 519.988 554.521 521.066L536.411 531.521C535.331 532.144 533.983 531.365 533.983 530.119V514.222C533.984 512.067 535.134 510.076 536.999 508.998Z" fill="#E9E5F6"/>
<path d="M626.119 457.494L644.229 447.039C645.309 446.416 646.657 447.195 646.657 448.441V464.338C646.657 466.493 645.507 468.485 643.64 469.562L625.53 480.017C624.451 480.641 623.102 479.862 623.102 478.616V462.718C623.102 460.563 624.252 458.572 626.119 457.494Z" fill="#E9E5F6"/>
<path d="M388.862 420.061V323.917C388.862 316.449 396.946 311.781 403.414 315.516L465.211 351.238C478.069 358.662 487.305 371.05 490.75 385.492L519.502 506.031C521.094 512.707 521.898 519.547 521.898 526.41V583.194C521.898 591.248 513.18 596.281 506.205 592.255L242.436 439.496C234.764 435.067 230.038 426.881 230.038 418.022V358.008C230.038 353.161 235.286 350.132 239.483 352.555L372.284 429.609C379.643 433.879 388.862 428.569 388.862 420.061Z" fill="#06DAAE"/>
<path d="M404.825 435.925V337.39L454.698 366.229C459.63 369.076 463.107 373.9 464.25 379.479L485.339 482.455L404.825 435.925Z" fill="url(#paint6_linear)"/>
<path d="M616.609 320L505.853 383.945L528.616 482.454L639.373 418.509L616.609 320Z" fill="url(#paint7_linear)"/>
<path d="M404.568 536.661C404.568 506.44 422.942 492.549 445.607 505.635C468.273 518.722 486.647 553.828 486.647 584.049C486.647 614.27 468.272 628.161 445.607 615.075C422.941 601.989 404.568 566.882 404.568 536.661Z" fill="url(#paint8_linear)"/>
<path d="M461.155 596.223C472.431 591.419 474.687 571.366 466.194 551.435C457.702 531.503 441.676 519.24 430.4 524.045C419.125 528.85 416.868 548.902 425.361 568.833C433.853 588.765 449.879 601.028 461.155 596.223Z" fill="#E9E5F6"/>
<path d="M453.612 578.518C459.356 576.07 460.506 565.854 456.179 555.7C451.853 545.546 443.688 539.298 437.943 541.746C432.199 544.194 431.049 554.41 435.376 564.564C439.702 574.718 447.867 580.966 453.612 578.518Z" fill="#7662BD"/>
<path d="M250.309 447.315C250.309 417.094 268.683 403.203 291.348 416.289C314.014 429.376 332.388 464.483 332.388 494.703C332.388 524.924 314.013 538.815 291.348 525.729C268.682 512.644 250.309 477.536 250.309 447.315Z" fill="url(#paint9_linear)"/>
<path d="M306.878 506.962C318.154 502.158 320.411 482.105 311.918 462.174C303.425 442.242 287.4 429.98 276.124 434.784C264.848 439.589 262.592 459.641 271.084 479.573C279.577 499.504 295.602 511.767 306.878 506.962Z" fill="#E9E5F6"/>
<path d="M278.331 463.494C278.331 453.908 284.158 449.502 291.348 453.653C298.538 457.804 304.366 468.939 304.366 478.525C304.366 488.112 298.537 492.517 291.348 488.366C284.158 484.216 278.331 473.08 278.331 463.494Z" fill="#7662BD"/>
<path d="M651.372 502.506L518.158 575.444L493.606 563.644V592.201L514.669 604.362C518.387 606.508 522.968 606.508 526.686 604.362L655.399 530.049C657.075 529.082 657.911 527.389 657.911 525.696V497.139L651.372 502.506Z" fill="url(#paint10_linear)"/>
<path d="M499.304 560.355L521.898 573.399L651.733 498.439V490.671L655.399 492.787C658.749 494.721 658.749 499.558 655.399 501.491L526.686 575.803C522.968 577.95 518.387 577.95 514.669 575.803L493.606 563.643L499.304 560.355Z" fill="#A996EB"/>
<path d="M564.6 523.278L619.046 491.844V501.181C619.046 507.114 615.882 512.596 610.742 515.562L572.778 537.481C569.143 539.58 564.599 536.956 564.599 532.758V523.278H564.6Z" fill="url(#paint11_linear)"/>
<path d="M149.548 221.327L244.027 275.875C248.854 278.663 251.828 283.814 251.828 289.388C251.828 294.242 246.573 297.277 242.368 294.849L147.89 240.301C143.062 237.514 140.089 232.363 140.089 226.789C140.089 221.934 145.344 218.9 149.548 221.327Z" fill="url(#paint12_linear)"/>
<path d="M184.085 281.483L278.564 336.03C283.391 338.818 286.365 343.969 286.365 349.543C286.365 354.397 281.11 357.432 276.905 355.004L182.427 300.455C177.599 297.668 174.626 292.517 174.626 286.943C174.626 282.089 179.881 279.055 184.085 281.483V281.483Z" fill="url(#paint13_linear)"/>
<defs>
<linearGradient id="paint0_linear" x1="720.5" y1="945.5" x2="-9.5" y2="253" gradientUnits="userSpaceOnUse">
<stop stop-color="#78A1BB"/>
<stop offset="1" stop-color="white" stop-opacity="0"/>
</linearGradient>
<linearGradient id="paint1_linear" x1="321.049" y1="447.475" x2="304.175" y2="418.248" gradientUnits="userSpaceOnUse">
<stop stop-color="#43386B"/>
<stop offset="1" stop-color="#7662BD"/>
</linearGradient>
<linearGradient id="paint2_linear" x1="475.308" y1="536.82" x2="458.434" y2="507.594" gradientUnits="userSpaceOnUse">
<stop stop-color="#43386B"/>
<stop offset="1" stop-color="#7662BD"/>
</linearGradient>
<linearGradient id="paint3_linear" x1="415.455" y1="294.942" x2="374.222" y2="294.942" gradientUnits="userSpaceOnUse">
<stop stop-color="#DEA861"/>
<stop offset="1" stop-color="#CC8241"/>
</linearGradient>
<linearGradient id="paint4_linear" x1="463.882" y1="111.521" x2="309.465" y2="200.673" gradientUnits="userSpaceOnUse">
<stop stop-color="#DEA861"/>
<stop offset="1" stop-color="#EBCBA0"/>
</linearGradient>
<linearGradient id="paint5_linear" x1="558.455" y1="429.818" x2="503.537" y2="334.696" gradientUnits="userSpaceOnUse">
<stop stop-color="#236568"/>
<stop offset="0.1516" stop-color="#276A6C"/>
<stop offset="0.3251" stop-color="#337878"/>
<stop offset="0.5094" stop-color="#478E8C"/>
<stop offset="0.7011" stop-color="#62AFA7"/>
<stop offset="0.8968" stop-color="#86D7CA"/>
<stop offset="1" stop-color="#9BF0DF"/>
</linearGradient>
<linearGradient id="paint6_linear" x1="445.083" y1="477.417" x2="445.083" y2="352.884" gradientUnits="userSpaceOnUse">
<stop stop-color="#43386B"/>
<stop offset="1" stop-color="#7662BD"/>
</linearGradient>
<linearGradient id="paint7_linear" x1="572.613" y1="476.813" x2="572.613" y2="337.352" gradientUnits="userSpaceOnUse">
<stop stop-color="#43386B"/>
<stop offset="1" stop-color="#7662BD"/>
</linearGradient>
<linearGradient id="paint8_linear" x1="445.607" y1="636.838" x2="445.607" y2="488.759" gradientUnits="userSpaceOnUse">
<stop stop-color="#43386B"/>
<stop offset="1" stop-color="#7662BD"/>
</linearGradient>
<linearGradient id="paint9_linear" x1="291.348" y1="547.492" x2="291.348" y2="399.415" gradientUnits="userSpaceOnUse">
<stop stop-color="#43386B"/>
<stop offset="1" stop-color="#7662BD"/>
</linearGradient>
<linearGradient id="paint10_linear" x1="516.644" y1="551.556" x2="536.461" y2="551.556" gradientUnits="userSpaceOnUse">
<stop stop-color="#43386B"/>
<stop offset="1" stop-color="#7662BD"/>
</linearGradient>
<linearGradient id="paint11_linear" x1="591.823" y1="536.609" x2="591.823" y2="496.797" gradientUnits="userSpaceOnUse">
<stop stop-color="#43386B"/>
<stop offset="1" stop-color="#594A8E"/>
</linearGradient>
<linearGradient id="paint12_linear" x1="260.29" y1="297.677" x2="148.044" y2="228.602" gradientUnits="userSpaceOnUse">
<stop stop-color="#43386B"/>
<stop offset="1" stop-color="#7662BD"/>
</linearGradient>
<linearGradient id="paint13_linear" x1="294.829" y1="357.832" x2="182.581" y2="288.757" gradientUnits="userSpaceOnUse">
<stop stop-color="#43386B"/>
<stop offset="1" stop-color="#7662BD"/>
</linearGradient>
</defs>
</svg>
